# xmcd CD database file
#
# Track frame offsets:
#	150
#	10211
#	29269
#	51614
#	64071
#	94913
#	116998
#	136962
#	146231
#	165357
#	182937
#	196144
#
# Disc length: 2864 seconds
#
# Revision: 0
# Processed by: cddbd v1.5.2PL0 Copyright (c) Steve Scherf et al.
# Submitted via: CDex 1.70beta2
#
DISCID=b10b2e0c
DTITLE=Various Artist - New England Metal and Hardcore Festival
DYEAR=2013
DGENRE=Merengue
TTITLE0=Hatebreed - Put It To The Torch
TTITLE1=Holy Grail - Dark Passenger
TTITLE2=Shadows Fall - Fire From The Sky
TTITLE3=Gideon - Bad Blood
TTITLE4=Intronaut - Milk Leg
TTITLE5=Starkill - New Infernal Rebirth
TTITLE6=Voivod - Kluskap O'Kom
TTITLE7=Fall City Fall - Love Birds
TTITLE8=Siste Sin - Hearts Of Cold
TTITLE9=Necrowrech - Putrid Death Sorcery
TTITLE10=Death Wolf - World Serpent
TTITLE11=Continents - Idle Hands
EXTD=YEAR: 2013
EXTT0=
EXTT1=
EXTT2=
EXTT3=
EXTT4=
EXTT5=
EXTT6=
EXTT7=
EXTT8=
EXTT9=
EXTT10=
EXTT11=
PLAYORDER=
